<svg width="17" height="12" viewBox="0 0 17 12" fill="none" xmlns="http://www.w3.org/2000/svg">
<path d="M1.89868 12H0.570557V0.578125H6.93774V1.75781H1.89868V5.9375H6.63306V7.11719H1.89868V12ZM8.83618 0.578125H12.0627C13.5784 0.578125 14.6747 0.804688 15.3518 1.25781C16.0289 1.71094 16.3674 2.42708 16.3674 3.40625C16.3674 4.08333 16.1773 4.64323 15.7971 5.08594C15.4221 5.52344 14.8726 5.80729 14.1487 5.9375V6.01562C15.8831 6.3125 16.7502 7.22396 16.7502 8.75C16.7502 9.77083 16.4039 10.5677 15.7112 11.1406C15.0237 11.7135 14.0601 12 12.8206 12H8.83618V0.578125ZM10.1643 5.46875H12.3518C13.2893 5.46875 13.9638 5.32292 14.3752 5.03125C14.7867 4.73438 14.9924 4.23698 14.9924 3.53906C14.9924 2.89844 14.7633 2.4375 14.3049 2.15625C13.8466 1.86979 13.1174 1.72656 12.1174 1.72656H10.1643V5.46875ZM10.1643 6.59375V10.8672H12.5471C13.469 10.8672 14.1617 10.6901 14.6252 10.3359C15.094 9.97656 15.3284 9.41667 15.3284 8.65625C15.3284 7.94792 15.0888 7.42708 14.6096 7.09375C14.1357 6.76042 13.4117 6.59375 12.4377 6.59375H10.1643Z" fill="url(#paint0_linear)"/>
<defs>
<linearGradient id="paint0_linear" x1="18.0002" y1="-10.6353" x2="-0.446881" y2="-10.6353" gradientUnits="userSpaceOnUse">
<stop stop-color="#A400FF"/>
<stop offset="1" stop-color="#2C5AF4"/>
</linearGradient>
</defs>
</svg>
