<svg width="24" height="12" viewBox="0 0 24 12" fill="none" xmlns="http://www.w3.org/2000/svg">
<path d="M5.36816 11.8567H4.04004V1.6145H0.422852V0.434814H8.98535V1.6145H5.36816V11.8567ZM20.6807 11.8567H19.3682L17.0635 4.20825C16.9541 3.86971 16.8317 3.44263 16.6963 2.927C16.5609 2.41138 16.4906 2.10148 16.4854 1.99731C16.3708 2.68481 16.1885 3.43742 15.9385 4.25513L13.7041 11.8567H12.3916L9.35254 0.434814H10.7588L12.5635 7.4895C12.8135 8.47909 12.9958 9.37492 13.1104 10.177C13.251 9.22388 13.4593 8.29159 13.7354 7.38013L15.7822 0.434814H17.1885L19.3369 7.44263C19.5869 8.24992 19.7979 9.16138 19.9697 10.177C20.0687 9.43742 20.2562 8.53638 20.5322 7.47388L22.3291 0.434814H23.7354L20.6807 11.8567Z" fill="url(#paint0_linear)"/>
<defs>
<linearGradient id="paint0_linear" x1="24.2822" y1="-10.7786" x2="0.980594" y2="-10.7786" gradientUnits="userSpaceOnUse">
<stop stop-color="#A400FF"/>
<stop offset="1" stop-color="#2C5AF4"/>
</linearGradient>
</defs>
</svg>
