<svg width="67" height="25" viewBox="0 0 67 25" fill="none" xmlns="http://www.w3.org/2000/svg">
<path d="M15.3953 5H12.1953L8.39531 11.22L4.59531 5H1.39531V19H4.59531V10.86L8.21531 16.8H8.57531L12.1953 10.86V19H15.3953V5ZM28.8016 19L24.6216 11.82L28.6016 5H24.9616L22.8016 8.7L20.6416 5H17.0016L20.9816 11.82L16.8016 19H20.4416L22.8016 14.96L25.1616 19H28.8016ZM39.6039 5H29.2039V8.08H32.8039V19H36.0039V8.08H39.6039V5Z" fill="white"/>
<path d="M43.0474 15.96H48.7274C48.7914 15.656 48.8234 15.336 48.8234 15C48.8234 12.584 47.0954 10.776 44.7594 10.776C42.2314 10.776 40.5034 12.616 40.5034 15C40.5034 17.384 42.1994 19.224 44.9354 19.224C46.4554 19.224 47.6394 18.664 48.4234 17.576L46.5034 16.472C46.1834 16.824 45.6234 17.08 44.9674 17.08C44.0874 17.08 43.3514 16.792 43.0474 15.96ZM42.9994 14.168C43.2234 13.352 43.8314 12.904 44.7434 12.904C45.4634 12.904 46.1834 13.24 46.4394 14.168H42.9994ZM53.9466 19.224C55.5146 19.224 56.8746 18.408 57.5626 17.16L55.4666 15.96C55.2106 16.52 54.6186 16.856 53.9146 16.856C52.8746 16.856 52.1066 16.104 52.1066 15C52.1066 13.896 52.8746 13.144 53.9146 13.144C54.6186 13.144 55.1946 13.48 55.4666 14.04L57.5626 12.824C56.8746 11.592 55.4986 10.776 53.9466 10.776C51.5146 10.776 49.7066 12.616 49.7066 15C49.7066 17.384 51.5146 19.224 53.9466 19.224ZM63.2164 10.776C62.1604 10.776 61.3604 11.16 60.9284 11.752V7.8H58.5284V19H60.9284V14.632C60.9284 13.496 61.5364 12.984 62.4164 12.984C63.1844 12.984 63.8084 13.448 63.8084 14.44V19H66.2084V14.088C66.2084 11.928 64.8324 10.776 63.2164 10.776Z" fill="white"/>
</svg>
