<svg xmlns="http://www.w3.org/2000/svg" xmlns:xlink="http://www.w3.org/1999/xlink"><symbol viewBox="0 0 17 12" id="FB" xmlns="http://www.w3.org/2000/svg"><path d="M1.899 12H.57V.578h6.367v1.18h-5.04v4.18h4.735v1.18H1.9V12zM8.836.578h3.227c1.515 0 2.612.227 3.289.68.677.453 1.015 1.17 1.015 2.148 0 .677-.19 1.237-.57 1.68-.375.437-.924.721-1.648.851v.079c1.734.296 2.601 1.208 2.601 2.734 0 1.02-.346 1.818-1.039 2.39-.687.573-1.65.86-2.89.86H8.836V.578zm1.328 4.89h2.188c.937 0 1.612-.145 2.023-.437.412-.297.617-.794.617-1.492 0-.64-.229-1.102-.687-1.383-.458-.286-1.188-.43-2.188-.43h-1.953V5.47zm0 1.126v4.273h2.383c.922 0 1.615-.177 2.078-.531.469-.36.703-.92.703-1.68 0-.708-.24-1.229-.718-1.562-.474-.334-1.198-.5-2.172-.5h-2.274z" data-fill="true"/><defs fill="none"><linearGradient id="apaint0_linear" x1="18" y1="-10.635" x2="-.447" y2="-10.635" gradientUnits="userSpaceOnUse" fill="none"><stop stop-color="#A400FF" fill="none"/><stop offset="1" stop-color="#2C5AF4" fill="none"/></linearGradient></defs></symbol><symbol viewBox="0 0 14 12" id="IN" xmlns="http://www.w3.org/2000/svg"><path d="M.14 11.857V.435h1.328v11.422H.14zm13.39 0h-1.515L5.772 2.27H5.71c.083 1.125.125 2.156.125 3.093v6.493H4.608V.435h1.5l6.227 9.547h.063a85.81 85.81 0 01-.07-1.352 23.687 23.687 0 01-.04-1.64V.434h1.242v11.422z" data-fill="true"/><defs fill="none"><linearGradient id="bpaint0_linear" x1="15.569" y1="-10.779" x2="-.936" y2="-10.779" gradientUnits="userSpaceOnUse" fill="none"><stop stop-color="#A400FF" fill="none"/><stop offset="1" stop-color="#2C5AF4" fill="none"/></linearGradient></defs></symbol><symbol viewBox="0 0 24 12" id="TW" xmlns="http://www.w3.org/2000/svg"><path d="M5.368 11.857H4.04V1.615H.423V.434h8.562v1.18H5.368v10.242zm15.313 0h-1.313l-2.304-7.649c-.11-.338-.232-.765-.368-1.281-.135-.516-.205-.826-.21-.93-.115.688-.297 1.44-.548 2.258l-2.234 7.602h-1.312L9.352.435h1.407l1.804 7.054c.25.99.433 1.886.547 2.688.141-.953.35-1.885.625-2.797L15.782.435h1.407l2.148 7.008c.25.807.46 1.718.633 2.734.099-.74.286-1.64.562-2.703L22.33.434h1.406l-3.054 11.423z" data-fill="true"/><defs fill="none"><linearGradient id="cpaint0_linear" x1="24.282" y1="-10.779" x2=".981" y2="-10.779" gradientUnits="userSpaceOnUse" fill="none"><stop stop-color="#A400FF" fill="none"/><stop offset="1" stop-color="#2C5AF4" fill="none"/></linearGradient></defs></symbol></svg>